<svg xmlns="http://www.w3.org/2000/svg" x="0px" y="0px" width="100" height="100" viewBox="0 0 48 48">
<path fill="#fff" d="M11.048,43.521c-0.804,0-1.612-0.072-2.401-0.213c-0.177-0.032-0.324-0.156-0.384-0.325l-0.04-0.112	c-0.06-0.167-0.024-0.355,0.091-0.491c0.932-1.098,1.597-2.42,1.924-3.823c0.197-0.831-0.173-1.798-1.017-2.65	C5.854,32.514,4,28.116,4,23.521C4,13.386,12.972,5.14,24,5.14s20,8.246,20,18.381s-8.972,18.381-20,18.381	c-1.678,0-3.348-0.192-4.966-0.57c-0.075-0.018-0.151-0.026-0.228-0.026c-0.184,0-0.364,0.05-0.523,0.148	c-2.202,1.353-4.696,2.068-7.213,2.068H11.048z"></path><path d="M24,5.14c-11.03,0-20,8.25-20,18.38c0,4.6,1.85,8.99,5.22,12.39c0.84,0.85,1.21,1.82,1.02,2.65	c-0.33,1.4-0.99,2.72-1.93,3.82c-0.11,0.14-0.15,0.32-0.09,0.49l0.04,0.11c0.06,0.17,0.21,0.3,0.39,0.33	c0.79,0.14,1.59,0.21,2.4,0.21h0.02c2.52,0,5.01-0.71,7.21-2.07c0.16-0.09,0.34-0.14,0.53-0.14c0.07,0,0.15,0,0.22,0.02	c1.62,0.38,3.29,0.57,4.97,0.57c11.03,0,20-8.24,20-18.38C44,13.39,35.03,5.14,24,5.14z M24,38.9c-1.45,0-2.89-0.16-4.29-0.49	c-0.3-0.07-0.61-0.11-0.92-0.11c-0.77,0-1.51,0.22-2.17,0.63c-1.15,0.72-2.45,1.21-3.78,1.44c0.12-0.37,0.23-0.75,0.32-1.12	c0.44-1.86-0.22-3.85-1.81-5.46C8.54,30.97,7,27.32,7,23.52c0-8.48,7.63-15.38,17-15.38s17,6.9,17,15.38C41,32,33.37,38.9,24,38.9z" opacity=".05"></path><path d="M24,5.14c-11.03,0-20,8.25-20,18.38c0,4.6,1.85,8.99,5.22,12.39c0.84,0.85,1.21,1.82,1.02,2.65	c-0.33,1.4-0.99,2.72-1.93,3.82c-0.11,0.14-0.15,0.32-0.09,0.49l0.04,0.11c0.06,0.17,0.21,0.3,0.39,0.33	c0.79,0.14,1.59,0.21,2.4,0.21h0.02c2.52,0,5.01-0.71,7.21-2.07c0.16-0.09,0.34-0.14,0.53-0.14c0.07,0,0.15,0,0.22,0.02	c1.62,0.38,3.29,0.57,4.97,0.57c11.03,0,20-8.24,20-18.38C44,13.39,35.03,5.14,24,5.14z M24,39.4c-1.48,0-2.97-0.17-4.4-0.5	c-0.27-0.07-0.54-0.1-0.81-0.1c-0.67,0-1.33,0.19-1.9,0.55c-1.46,0.91-3.11,1.47-4.82,1.63c0.25-0.6,0.45-1.22,0.6-1.85	c0.4-1.69-0.21-3.5-1.67-4.98c-2.9-2.93-4.5-6.7-4.5-10.63c0-8.76,7.85-15.88,17.5-15.88s17.5,7.12,17.5,15.88S33.65,39.4,24,39.4z" opacity=".07"></path><path d="M23.997,34.571c-1.522,0-2.809-1.19-2.927-2.709c-0.015-0.147-0.015-0.31,0-0.471l0.282-3.205	L18.8,30.034c-0.512,0.368-1.113,0.562-1.739,0.562c-0.958,0-1.863-0.464-2.422-1.242c-0.465-0.646-0.649-1.436-0.521-2.221	c0.129-0.786,0.557-1.475,1.204-1.938c0.143-0.103,0.295-0.193,0.457-0.27l2.985-1.405l-2.99-1.408	c-0.72-0.336-1.266-0.935-1.536-1.683c-0.271-0.748-0.234-1.557,0.103-2.278c0.489-1.043,1.549-1.717,2.7-1.717	c0.439,0,0.864,0.095,1.263,0.282c0.182,0.085,0.356,0.189,0.518,0.31l2.533,1.876l-0.286-3.28	c-0.071-0.779,0.166-1.543,0.671-2.148c0.502-0.604,1.211-0.976,1.995-1.047c0.089-0.008,0.18-0.012,0.268-0.012	c1.532,0,2.792,1.151,2.93,2.678c0.017,0.176,0.017,0.355,0,0.534l-0.286,3.274l2.535-1.878c0.518-0.384,1.132-0.587,1.774-0.587	c0.94,0,1.835,0.45,2.394,1.204c0.475,0.638,0.673,1.423,0.557,2.211c-0.118,0.789-0.534,1.483-1.173,1.957	c-0.157,0.117-0.326,0.219-0.505,0.303l-2.974,1.407l2.968,1.402c0.75,0.354,1.306,0.984,1.562,1.773	c0.253,0.779,0.173,1.638-0.222,2.357c-0.523,0.955-1.525,1.549-2.616,1.549c-0.498,0-0.993-0.127-1.432-0.368	c-0.113-0.062-0.218-0.128-0.317-0.201l-2.55-1.847l0.282,3.205c0.062,0.791-0.184,1.553-0.694,2.15	c-0.509,0.597-1.222,0.959-2.005,1.021C24.152,34.568,24.075,34.571,23.997,34.571L23.997,34.571z" opacity=".05"></path><path d="M23.998,34.071c-1.264,0-2.331-0.987-2.43-2.249c-0.012-0.125-0.012-0.256,0-0.387l0.379-4.297	l-3.44,2.491c-0.426,0.306-0.925,0.467-1.446,0.467c-0.798,0-1.551-0.387-2.016-1.034c-0.387-0.538-0.541-1.194-0.434-1.848	s0.463-1.227,1.002-1.613c0.119-0.086,0.246-0.161,0.38-0.225l3.945-1.857l-3.951-1.86c-0.599-0.28-1.054-0.778-1.279-1.401	c-0.226-0.623-0.194-1.296,0.086-1.896c0.407-0.868,1.289-1.429,2.247-1.429c0.365,0,0.719,0.079,1.051,0.235	c0.15,0.07,0.296,0.157,0.431,0.258l3.427,2.538l-0.383-4.386c-0.06-0.648,0.139-1.283,0.557-1.784	c0.417-0.501,1.006-0.811,1.656-0.87c0.074-0.007,0.149-0.01,0.223-0.01c1.271,0,2.317,0.956,2.432,2.223	c0.014,0.147,0.014,0.295,0,0.443l-0.383,4.384l3.428-2.539c0.431-0.319,0.941-0.489,1.477-0.489c0.782,0,1.527,0.375,1.992,1.002	c0.396,0.531,0.56,1.186,0.463,1.841c-0.098,0.655-0.443,1.233-0.976,1.628c-0.131,0.097-0.271,0.182-0.42,0.251l-3.931,1.86	l3.924,1.854c0.625,0.295,1.087,0.819,1.301,1.476c0.211,0.648,0.144,1.363-0.185,1.962c-0.436,0.795-1.271,1.289-2.178,1.289	c-0.414,0-0.826-0.106-1.191-0.306c-0.093-0.051-0.18-0.106-0.263-0.167l-3.439-2.491l0.379,4.296	c0.052,0.654-0.152,1.285-0.576,1.781c-0.423,0.496-1.014,0.797-1.664,0.848C24.127,34.068,24.062,34.071,23.998,34.071z" opacity=".07"></path><linearGradient id="glOcOierPdYKwjnas7m2Sa_b3BL2Q2jPoHf_gr1" x1="7.689" x2="36.252" y1="11.269" y2="39.832" gradientUnits="userSpaceOnUse"><stop offset="0" stop-color="#c16ae0"></stop><stop offset=".51" stop-color="#f426a0"></stop><stop offset="1" stop-color="#fc5367"></stop></linearGradient><path fill="url(#glOcOierPdYKwjnas7m2Sa_b3BL2Q2jPoHf_gr1)" d="M11.07,44.521h-0.022c-0.864,0-1.731-0.078-2.577-0.229c-0.53-0.095-0.97-0.467-1.15-0.975	l-0.04-0.113c-0.179-0.504-0.075-1.065,0.271-1.472c0.83-0.979,1.422-2.155,1.713-3.403c0.115-0.486-0.167-1.127-0.754-1.72	C4.957,33.03,3,28.381,3,23.521C3,12.834,12.421,4.14,24,4.14s21,8.694,21,19.381s-9.421,19.381-21,19.381	c-1.754,0-3.501-0.201-5.193-0.597C16.441,43.758,13.788,44.521,11.07,44.521z M24,7.14c-9.925,0-18,7.349-18,16.381	c0,4.063,1.648,7.961,4.641,10.977c1.342,1.355,1.903,3.002,1.543,4.519c-0.201,0.865-0.51,1.708-0.914,2.502	c2.084-0.036,4.114-0.638,5.884-1.746c0.69-0.43,1.525-0.574,2.331-0.39c1.475,0.345,2.991,0.519,4.516,0.519	c9.925,0,18-7.349,18-16.381S33.925,7.14,24,7.14z M32.686,28.572c-0.527,0.96-1.731,1.311-2.691,0.784	c-0.072-0.04-0.142-0.084-0.209-0.132l-4.328-3.134l0.476,5.388c0.084,1.068-0.713,2.002-1.782,2.086	c-1.068,0.084-2.002-0.713-2.086-1.782c-0.008-0.101-0.008-0.203,0-0.305l0.476-5.388l-4.328,3.134	c-0.888,0.638-2.125,0.435-2.763-0.453c-0.638-0.888-0.435-2.125,0.453-2.763c0.096-0.069,0.198-0.129,0.304-0.18l4.904-2.308	L16.2,21.208c-0.99-0.464-1.417-1.643-0.953-2.633c0.464-0.99,1.643-1.417,2.633-0.953c0.121,0.057,0.236,0.126,0.344,0.206	l4.32,3.2l-0.48-5.492c-0.097-1.069,0.691-2.015,1.76-2.112s2.015,0.691,2.112,1.76c0.011,0.117,0.011,0.235,0,0.352l-0.48,5.492	l4.32-3.2c0.878-0.652,2.118-0.469,2.77,0.409s0.469,2.118-0.409,2.77c-0.105,0.078-0.217,0.145-0.335,0.201l-4.888,2.312	l4.88,2.306C32.828,26.314,33.234,27.57,32.686,28.572z"></path>
</svg>